<svg width="41" height="56" viewBox="0 0 41 56" fill="none" xmlns="http://www.w3.org/2000/svg">
<path d="M37.0359 0.396853C34.0892 0.139991 31.0853 0.182801 28.1421 0.521716C25.3594 0.842793 22.6017 1.42787 19.9618 2.26267C14.8994 3.86449 10.3687 6.33322 6.86894 9.39772C6.24462 9.94712 5.65598 10.5072 5.11015 11.0816C4.31103 11.845 3.58682 12.6941 2.94466 13.6181C2.36672 14.4529 1.87084 15.3305 1.45701 16.2402C0.433127 18.3558 -0.0556244 20.5284 0.00502357 22.6653C0.00145605 22.8009 0.0121591 22.9365 0.0121591 23.0756V32.3797C0.0121591 35.4157 0.625773 38.0093 1.92078 40.3103C3.55114 43.2107 7.59672 46.8068 9.7301 48.4764C10.6648 49.2077 11.4746 49.8535 12.2595 50.4778C12.7768 50.888 13.2691 51.2805 13.7614 51.6658C14.6711 52.3828 15.5666 53.0749 16.5726 53.8205C17.147 54.2701 17.7106 54.7089 18.3671 55.1869C18.8844 55.5686 19.498 55.7684 20.1401 55.7684C20.1508 55.7684 20.1615 55.7684 20.1722 55.7684C20.8251 55.7613 21.4459 55.5472 21.9667 55.1512L23.1868 54.2165C23.2582 54.1666 23.3295 54.1166 23.3973 54.0631L26.4011 51.7656L30.6786 48.4907C30.6857 48.4871 30.6893 48.48 30.6964 48.4764C32.8334 46.8068 36.9146 43.2107 38.545 40.3103C39.84 38.0093 40.5 35.4157 40.5 32.3797V11.0602C40.5 11.0531 40.5 11.0423 40.5 11.0352V4.11778C40.5 4.09638 40.5 4.07497 40.5 4.05V0.696526L37.0359 0.396853ZM10.1832 42.8896C8.36373 41.2307 6.58711 39.3614 5.85576 38.0592C4.95675 36.4645 4.51081 34.6059 4.51081 32.3797V31.1846C4.51081 31.1275 4.51081 31.0704 4.51081 31.0134V29.9859H10.1832V42.8896ZM10.1832 18.3201V26.3114H4.51081V22.6832V22.6725C4.68918 21.0564 4.97459 19.4867 5.64528 18.0347C6.27316 16.7896 7.18288 15.5481 8.31735 14.3423C9.21994 13.4897 10.2367 12.7797 11.3676 12.241C10.5934 13.9998 10.1832 16.044 10.1832 18.3201ZM29.0197 3.79671C29.0197 3.72179 29.034 3.6219 29.1125 3.6219H32.2733C32.3518 3.6219 32.3375 3.72179 32.3375 3.79671V4.54945C32.3375 4.62437 32.3518 4.6208 32.2733 4.6208H30.197V5.79809H32.102C32.1805 5.79809 32.1948 5.83019 32.1948 5.90511V6.62932C32.1948 6.70424 32.1805 6.79699 32.102 6.79699H30.197V7.7959H32.3197C32.3982 7.7959 32.5159 7.90649 32.5159 7.98141V8.73416C32.5159 8.80908 32.3982 8.79124 32.3197 8.79124H29.1125C29.034 8.79124 29.0197 8.80551 29.0197 8.73416V3.79671ZM24.917 3.6219H28.0707C28.1492 3.6219 28.1992 3.72179 28.1992 3.79671V4.54945C28.1992 4.62437 28.1492 4.6208 28.0707 4.6208H26.023V5.79809H27.9138C27.9923 5.79809 28.0208 5.83019 28.0208 5.90511V6.62932C28.0208 6.70424 27.9923 6.79699 27.9138 6.79699H26.023V8.73773C26.023 8.81265 25.9231 8.79481 25.8446 8.79481H24.917C24.8386 8.79481 24.8457 8.80908 24.8457 8.73773V3.79671C24.8457 3.72179 24.8386 3.6219 24.917 3.6219ZM14.0004 18.3201C14.0004 17.4104 14.0539 16.5613 14.2073 15.7729C15.2598 12.8011 18.0852 10.6642 21.4137 10.6642C23.8646 10.6642 26.1086 11.8094 27.5535 13.7537C26.7936 14.3708 26.0729 15.0701 25.4058 15.805C22.7337 18.7446 21.0499 22.3157 20.5361 26.3114H14.0004V18.3201ZM27.8852 44.8518L20.611 50.4207C20.3471 50.624 19.976 50.6276 19.712 50.4314C18.0424 49.2077 16.7117 48.1303 15.142 46.8817C14.7639 46.582 14.3572 46.2752 14.0004 45.9577V29.9859H20.4041C20.5932 33.1253 21.5172 36.0935 23.1119 38.7513C24.4568 40.9989 26.2442 42.9467 28.3526 44.4808C28.192 44.6092 28.0386 44.7341 27.8852 44.8518ZM35.8694 32.3797C35.8694 34.6059 35.427 36.4645 34.528 38.0592C33.9322 39.1188 32.655 40.5493 31.2209 41.9371C29.2231 40.635 27.5356 38.8904 26.3048 36.8391C25.0562 34.7557 24.3141 32.4832 24.1358 29.9859H35.8694V32.3797ZM35.8694 26.3114H24.2999C24.785 23.3146 26.1229 20.5605 28.1671 18.3094C30.2434 16.0226 32.9119 14.3994 35.8729 13.6466V26.3114H35.8694ZM37.1893 7.48553C37.1893 8.4773 36.697 8.79481 35.534 8.79481H33.3721C33.2936 8.79481 33.1937 8.80908 33.1937 8.73773V3.79671C33.1937 3.72179 33.2936 3.6219 33.3721 3.6219H35.5197C36.5864 3.6219 37.0074 4.0714 37.0074 5.0168C37.0074 5.54836 36.8683 5.85873 36.3688 6.08706V6.15484C36.8683 6.34035 37.1893 6.70067 37.1893 7.15375V7.48553ZM35.3307 5.79809H34.3353V4.6208H35.3307C35.6303 4.6208 35.8694 4.70642 35.8694 5.12026V5.32004C35.8694 5.7196 35.6125 5.79809 35.3307 5.79809ZM36.0121 7.13234V7.42131C36.0121 7.77806 35.8158 7.7959 35.4412 7.7959H34.3353V6.61862H35.4412C35.8158 6.61862 36.0121 6.76845 36.0121 7.13234Z" fill="#F5F5F5"/>
</svg>
